<svg xmlns="http://www.w3.org/2000/svg" width="128" height="128" viewBox="-5 -3 128 128" xmlns:v="https://vecta.io/nano">
<style><![CDATA[.B{pointer-events:all}.C{fill-opacity:.2}]]></style>
<path d="M 56 51 l 25 12 v 31 l -25 12 l -25 -12 V 63 z" fill="#64664c" class="B"/>
<path d="M 56 75 L 81 63 v 31 l -25 12 z" class="B C"/>
<path d="M 56 75 L 31 63 v 31 l 25 12 z" fill="#ffffff" class="B C"/>
<path d="M 24.5 16 L 48 27.3 v 32.4 L 24.5 71 L 1 59.7 V 27.3 z" fill="#dbbc96" class="B"/>
<path d="M 24.5 38.6 L 48 27.3 v 32.4 L 24.5 71 z" class="B C"/>
<path d="M 24.5 38.6 L 1 27.3 v 32.4 L 24.5 71 z" fill="#ffffff" class="B C"/>
<path d="M 86 1 l 33.5 16.1 v 37.8 L 86 71 L 52.5 54.9 V 17.1 z" fill="#bd8078" class="B"/>
<path d="M 86 33.2 l 33.5 -16.1 v 37.8 L 86 71 z" class="B C"/>
<path d="M 86 33.2 L 52.5 17.1 v 37.8 L 86 71 z" fill="#ffffff" class="B C"/>
<path d="M 104.5 91 l 15 7.2 v 15.6 l -15 7.2 l -15 -7.2 V 98.2 z" fill="#5b7181" class="B"/>
<path d="M 104.5 105.4 l 15 -7.2 v 15.6 l -15 7.2 z" class="B C"/>
<path d="M 104.5 105.4 l -15 -7.2 v 15.6 l 15 7.2 z" fill="#ffffff" class="B C"/>
</svg>